<svg width="230" height="85" viewBox="0 0 230 85" fill="none" xmlns="http://www.w3.org/2000/svg">
<path d="M120.571 39.2998L118.826 41.338C117.776 40.3369 116.547 39.8364 115.134 39.8364C113.932 39.8164 112.899 40.2208 112.042 41.0457C111.185 41.8706 110.745 43.0078 110.725 44.4573C110.725 45.7387 111.117 46.8158 111.898 47.6888C112.679 48.5617 113.768 48.9982 115.162 48.9982C116.403 48.9982 117.652 48.4616 118.914 47.3844L120.688 49.3906C119.046 51.1124 117.204 51.9773 115.162 51.9773C112.795 51.9773 110.945 51.2446 109.608 49.775C108.27 48.3054 107.606 46.5195 107.606 44.4213C107.626 42.3431 108.31 40.5652 109.668 39.0956C111.021 37.626 112.855 36.8813 115.162 36.8652C117.184 36.8652 118.986 37.6781 120.571 39.3038V39.2998Z" fill="black"/>
<path d="M122.033 31.6193H125.152V37.1612C125.897 36.8649 126.774 36.6927 127.787 36.6567C129.921 36.6207 131.679 37.1933 133.053 38.3865C134.426 39.5798 135.115 41.2536 135.115 43.4039V51.6527H131.996V43.464C131.996 42.2627 131.599 41.3217 130.806 40.645C130.014 39.9682 129.008 39.6279 127.787 39.6279C126.87 39.6279 125.993 39.772 125.152 40.0563V51.6487H122.033V31.6113V31.6193Z" fill="black"/>
<path d="M137.606 37.0892H140.296L140.509 38.743C141.169 37.4896 142.319 36.8369 143.956 36.7769C145.178 36.7769 146.283 37.1052 147.276 37.7659L145.959 40.4047C145.174 39.9923 144.397 39.7801 143.624 39.7721C142.851 39.764 142.174 40.0243 141.594 40.5609C141.013 41.0975 140.721 41.8062 140.721 42.6912V51.6647H137.602V37.0932L137.606 37.0892Z" fill="black"/>
<path d="M161.675 44.4053C161.675 46.5276 160.959 48.3175 159.529 49.783C158.096 51.2446 156.294 51.9774 154.119 51.9774C151.945 51.9774 150.159 51.2286 148.71 49.727C147.26 48.2294 146.535 46.4555 146.535 44.4093C146.535 42.3631 147.26 40.5973 148.71 39.1157C150.159 37.6341 151.961 36.8933 154.119 36.8933C156.278 36.8933 158.096 37.6101 159.529 39.0516C160.959 40.4891 161.675 42.275 161.675 44.4093V44.4053ZM151 41.0417C150.103 41.8266 149.655 42.9478 149.655 44.4053C149.655 45.8629 150.103 46.9921 151 47.7929C151.897 48.5938 152.938 48.9942 154.119 48.9942C155.301 48.9942 156.362 48.5938 157.239 47.7929C158.116 46.9921 158.556 45.8589 158.556 44.4053C158.556 42.9518 158.116 41.8266 157.239 41.0417C156.362 40.2569 155.321 39.8645 154.119 39.8645C152.918 39.8645 151.897 40.2569 151 41.0417Z" fill="black"/>
<path d="M179.094 39.6358C178.185 39.6358 177.44 39.9201 176.872 40.4807C176.303 41.0453 176.007 41.9063 175.987 43.0715V51.6606H172.867V43.0635C172.887 42.0905 172.699 41.3056 172.311 40.713C171.918 40.1203 171.398 39.748 170.749 39.5958C170.1 39.4436 169.436 39.3996 168.759 39.4596C168.082 39.5237 167.39 39.6799 166.685 39.9281V51.6646H163.565V37.7578C165.716 37.009 167.646 36.6286 169.356 36.6086C171.95 36.5686 173.64 37.3694 174.429 39.0032C175.454 37.4455 177.008 36.6647 179.094 36.6647C180.956 36.6647 182.458 37.1732 183.591 38.1863C184.724 39.1994 185.293 40.8451 185.293 43.1236V51.6646H182.173V43.1636C182.173 41.9623 181.893 41.0734 181.332 40.5008C180.772 39.9281 180.027 39.6398 179.094 39.6398V39.6358Z" fill="black"/>
<path d="M194.594 49.282C196.348 49.282 197.685 48.6213 198.602 47.2999L200.893 48.7734C199.271 50.8516 197.173 51.8887 194.594 51.8887C192.248 51.8887 190.422 51.148 189.112 49.6664C187.807 48.1848 187.162 46.4429 187.182 44.4448C187.182 42.4467 187.843 40.7048 189.168 39.2232C190.494 37.7417 192.296 36.9929 194.566 36.9729C196.648 36.9528 198.354 37.6175 199.688 38.963C201.025 40.3124 201.69 41.9862 201.69 43.9923C201.69 44.5129 201.654 45.0735 201.578 45.6701H190.298C190.49 46.6752 190.962 47.5241 191.715 48.2248C192.468 48.9256 193.425 49.278 194.59 49.278L194.594 49.282ZM190.358 43.0713H198.658C198.446 41.9942 197.99 41.1453 197.285 40.5286C196.58 39.912 195.683 39.5956 194.594 39.5796C193.393 39.5996 192.44 39.916 191.731 40.5286C191.026 41.1453 190.566 41.9902 190.358 43.0713Z" fill="black"/>
<path d="M203.544 57.1266V54.5199C204.965 54.672 205.862 54.2596 206.243 53.2785L207.148 50.916L201.465 37.1414H204.585L208.577 47.1881L212.429 37.1414H215.548L208.877 54.2836C208.052 56.498 206.275 57.443 203.544 57.1186V57.1266Z" fill="black"/>
<path d="M222.904 49.282C224.658 49.282 225.996 48.6213 226.913 47.2999L229.203 48.7734C227.581 50.8516 225.483 51.8887 222.904 51.8887C220.558 51.8887 218.732 51.148 217.423 49.6664C216.113 48.1848 215.473 46.4429 215.489 44.4448C215.489 42.4467 216.149 40.7048 217.479 39.2232C218.804 37.7417 220.602 36.9929 222.872 36.9729C224.955 36.9528 226.66 37.6175 227.994 38.963C229.331 40.3124 230 41.9862 230 43.9923C230 44.5129 229.96 45.0735 229.884 45.6701H218.604C218.796 46.6752 219.269 47.5241 220.021 48.2248C220.774 48.9256 221.731 49.278 222.896 49.278L222.904 49.282ZM218.668 43.0713H226.969C226.761 41.9942 226.3 41.1453 225.595 40.5286C224.891 39.912 223.994 39.5956 222.904 39.5796C221.703 39.5996 220.75 39.916 220.041 40.5286C219.337 41.1453 218.876 41.9902 218.668 43.0713Z" fill="black"/>
<path d="M93.7536 32.4547C92.177 23.6683 87.5811 16.2638 81.0967 11.1046C69.8907 2.18846 57.1203 -0.741707 45.5537 0.15396C39.0773 0.656507 32.3537 2.35868 26.5785 4.89168C23.1701 6.38716 19.9076 8.30818 17.0098 10.5413C14.9105 12.1583 12.9368 13.9132 11.1576 15.7734C9.1312 17.893 7.29123 20.1545 5.69443 22.5294C5.39453 23.0725 5.09057 23.6156 4.81092 24.1668C1.0094 31.6806 -0.704928 39.7822 0.267742 47.3893C1.32147 55.661 5.00546 63.0331 10.5578 69.0109C13.6744 72.3707 17.3827 75.2847 21.5368 77.6799C28.9777 81.9677 37.8615 84.5656 47.3977 84.9789C42.0196 84.0792 36.7713 81.9272 32.1065 78.4458C27.0972 74.7011 23.4416 69.9715 21.0707 64.6258C21.0545 64.5853 20.9573 64.2651 20.941 64.2043C19.7009 60.5325 19.1943 56.5932 19.405 52.7106C19.5226 50.5464 19.9603 48.4227 20.5155 46.3599C21.3747 44.0741 22.4122 41.8694 23.7821 39.847C26.5947 35.6929 30.5219 32.2399 34.8583 30.1082C38.2586 28.4344 42.3195 27.5184 45.5577 27.2793C47.4098 27.1658 48.8081 27.2064 50.4859 27.3968C51.9368 27.5792 53.2945 27.8589 54.7008 28.2358C54.9683 28.3087 55.1953 28.3817 55.4587 28.4627C55.7789 28.56 56.5692 28.8234 56.6259 28.8437C61.9026 30.7161 66.6282 34.1407 70.0609 38.8622C70.0974 38.9149 70.1339 38.9716 70.1703 39.0243C70.1703 38.8865 70.373 39.4174 70.373 39.2796C70.4054 39.3283 70.4378 39.3728 70.4743 39.4215C77.6396 49.209 77.4937 62.0969 70.4581 71.9776C86.6166 66.5063 96.8458 49.7318 93.7617 32.4466L93.7536 32.4547Z" fill="url(#paint0_linear_7_160)"/>
<path d="M70.6042 39.4988C70.5677 39.4502 69.9152 38.5869 69.7815 38.4127C68.9831 39.434 68.1279 40.4107 67.212 41.3226C63.6577 44.8647 59.2969 47.5315 54.6321 48.7919C41.1039 52.4516 27.1745 45.6023 21.5289 33.2454C18.1854 49.9753 27.4825 67.1348 43.9976 73.1086C52.3909 76.1361 61.1126 75.5322 68.8939 72.6872C70.5394 72.0873 70.6528 71.8969 70.6002 71.9131C77.6358 62.0324 77.7695 49.2863 70.6042 39.4988Z" fill="url(#paint1_linear_7_160)"/>
<defs>
<linearGradient id="paint0_linear_7_160" x1="0.198844" y1="57.8414" x2="95.4638" y2="24.2154" gradientUnits="userSpaceOnUse">
<stop stop-color="#50AABE"/>
<stop offset="0.03" stop-color="#459EB8"/>
<stop offset="0.12" stop-color="#2F87AD"/>
<stop offset="0.22" stop-color="#2076A6"/>
<stop offset="0.32" stop-color="#166CA1"/>
<stop offset="0.45" stop-color="#1469A0"/>
<stop offset="0.58" stop-color="#1C71A4"/>
<stop offset="0.79" stop-color="#328AAF"/>
<stop offset="1" stop-color="#50AABE"/>
</linearGradient>
<linearGradient id="paint1_linear_7_160" x1="75.0662" y1="52.001" x2="18.4776" y2="55.1071" gradientUnits="userSpaceOnUse">
<stop stop-color="#1469A0"/>
<stop offset="0.23" stop-color="#1C71A4"/>
<stop offset="0.61" stop-color="#328AAF"/>
<stop offset="1" stop-color="#50AABE"/>
</linearGradient>
</defs>
</svg>
