<svg width="230" height="86" viewBox="0 0 230 86" fill="none" xmlns="http://www.w3.org/2000/svg">
<g clip-path="url(#clip0_5_400)">
<path d="M120.571 39.7998L118.826 41.8379C117.776 40.8369 116.547 40.3363 115.134 40.3363C113.932 40.3163 112.899 40.7207 112.042 41.5456C111.185 42.3705 110.745 43.5077 110.725 44.9573C110.725 46.2386 111.117 47.3158 111.898 48.1887C112.679 49.0616 113.768 49.4981 115.162 49.4981C116.403 49.4981 117.652 48.9615 118.914 47.8844L120.688 49.8905C119.046 51.6124 117.204 52.4773 115.162 52.4773C112.795 52.4773 110.945 51.7445 109.608 50.2749C108.27 48.8054 107.606 47.0195 107.606 44.9212C107.626 42.843 108.31 41.0651 109.668 39.5956C111.021 38.126 112.855 37.3812 115.162 37.3652C117.184 37.3652 118.986 38.178 120.571 39.8038V39.7998Z" fill="black"/>
<path d="M122.033 32.1194H125.152V37.6613C125.897 37.365 126.774 37.1928 127.787 37.1568C129.921 37.1207 131.679 37.6933 133.053 38.8866C134.426 40.0799 135.115 41.7537 135.115 43.904V52.1527H131.996V43.964C131.996 42.7627 131.599 41.8217 130.806 41.145C130.014 40.4683 129.008 40.1279 127.787 40.1279C126.87 40.1279 125.993 40.2721 125.152 40.5564V52.1487H122.033V32.1114V32.1194Z" fill="black"/>
<path d="M137.606 37.5892H140.296L140.509 39.2429C141.169 37.9896 142.319 37.3369 143.956 37.2768C145.178 37.2768 146.283 37.6052 147.276 38.2659L145.959 40.9047C145.174 40.4923 144.397 40.28 143.624 40.272C142.851 40.264 142.174 40.5243 141.594 41.0609C141.013 41.5974 140.721 42.3062 140.721 43.1911V52.1647H137.602V37.5932L137.606 37.5892Z" fill="black"/>
<path d="M161.675 44.9053C161.675 47.0275 160.959 48.8174 159.529 50.283C158.096 51.7445 156.294 52.4773 154.119 52.4773C151.945 52.4773 150.159 51.7285 148.71 50.2269C147.26 48.7293 146.535 46.9554 146.535 44.9093C146.535 42.8631 147.26 41.0972 148.71 39.6156C150.159 38.134 151.961 37.3932 154.119 37.3932C156.278 37.3932 158.096 38.11 159.529 39.5515C160.959 40.9891 161.675 42.775 161.675 44.9093V44.9053ZM151 41.5417C150.103 42.3265 149.655 43.4477 149.655 44.9053C149.655 46.3628 150.103 47.492 151 48.2929C151.897 49.0937 152.938 49.4941 154.119 49.4941C155.301 49.4941 156.362 49.0937 157.239 48.2929C158.116 47.492 158.556 46.3588 158.556 44.9053C158.556 43.4517 158.116 42.3265 157.239 41.5417C156.362 40.7568 155.321 40.3644 154.119 40.3644C152.918 40.3644 151.897 40.7568 151 41.5417Z" fill="black"/>
<path d="M179.094 40.1358C178.185 40.1358 177.44 40.4201 176.872 40.9807C176.303 41.5453 176.007 42.4062 175.987 43.5715V52.1606H172.867V43.5635C172.887 42.5904 172.699 41.8056 172.311 41.2129C171.918 40.6203 171.398 40.2479 170.749 40.0958C170.1 39.9436 169.436 39.8996 168.759 39.9596C168.082 40.0237 167.39 40.1799 166.685 40.4281V52.1646H163.565V38.2578C165.716 37.509 167.646 37.1286 169.356 37.1086C171.95 37.0685 173.64 37.8694 174.429 39.5031C175.454 37.9455 177.008 37.1646 179.094 37.1646C180.956 37.1646 182.458 37.6732 183.591 38.6863C184.724 39.6993 185.293 41.3451 185.293 43.6235V52.1646H182.173V43.6636C182.173 42.4623 181.893 41.5733 181.332 41.0007C180.772 40.4281 180.027 40.1398 179.094 40.1398V40.1358Z" fill="black"/>
<path d="M194.594 49.7821C196.348 49.7821 197.685 49.1214 198.602 47.8L200.893 49.2735C199.271 51.3518 197.173 52.3889 194.594 52.3889C192.248 52.3889 190.422 51.6481 189.112 50.1665C187.807 48.6849 187.162 46.9431 187.182 44.9449C187.182 42.9468 187.843 41.2049 189.168 39.7234C190.494 38.2418 192.296 37.493 194.566 37.473C196.648 37.453 198.354 38.1177 199.688 39.4631C201.025 40.8125 201.69 42.4863 201.69 44.4925C201.69 45.013 201.654 45.5736 201.578 46.1702H190.298C190.49 47.1753 190.962 48.0242 191.715 48.725C192.468 49.4257 193.425 49.7781 194.59 49.7781L194.594 49.7821ZM190.358 43.5715H198.658C198.446 42.4943 197.99 41.6454 197.285 41.0288C196.58 40.4121 195.683 40.0958 194.594 40.0797C193.393 40.0998 192.44 40.4161 191.731 41.0288C191.026 41.6454 190.566 42.4903 190.358 43.5715Z" fill="black"/>
<path d="M203.544 57.6267V55.0199C204.965 55.1721 205.862 54.7596 206.243 53.7786L207.148 51.4161L201.465 37.6414H204.585L208.577 47.6881L212.429 37.6414H215.548L208.877 54.7837C208.052 56.998 206.275 57.943 203.544 57.6187V57.6267Z" fill="black"/>
<path d="M222.904 49.7821C224.658 49.7821 225.996 49.1214 226.913 47.8L229.203 49.2735C227.581 51.3518 225.483 52.3889 222.904 52.3889C220.558 52.3889 218.732 51.6481 217.423 50.1665C216.113 48.6849 215.473 46.9431 215.489 44.9449C215.489 42.9468 216.149 41.2049 217.479 39.7234C218.804 38.2418 220.602 37.493 222.872 37.473C224.955 37.453 226.66 38.1177 227.994 39.4631C229.331 40.8125 230 42.4863 230 44.4925C230 45.013 229.96 45.5736 229.884 46.1702H218.604C218.796 47.1753 219.269 48.0242 220.021 48.725C220.774 49.4257 221.731 49.7781 222.896 49.7781L222.904 49.7821ZM218.668 43.5715H226.969C226.761 42.4943 226.3 41.6454 225.595 41.0288C224.891 40.4121 223.994 40.0958 222.904 40.0797C221.703 40.0998 220.75 40.4161 220.041 41.0288C219.337 41.6454 218.876 42.4903 218.668 43.5715Z" fill="black"/>
<path d="M93.7535 32.9547C92.177 24.1683 87.5811 16.7638 81.0967 11.6046C69.8907 2.68846 57.1203 -0.241707 45.5537 0.65396C39.0773 1.15651 32.3537 2.85868 26.5785 5.39168C23.1701 6.88716 19.9076 8.80818 17.0098 11.0413C14.9105 12.6583 12.9368 14.4132 11.1576 16.2734C9.1312 18.393 7.29123 20.6545 5.69443 23.0294C5.39453 23.5725 5.09057 24.1156 4.81092 24.6668C1.0094 32.1806 -0.704928 40.2822 0.267742 47.8893C1.32147 56.161 5.00546 63.5331 10.5578 69.5109C13.6744 72.8707 17.3827 75.7847 21.5368 78.1799C28.9777 82.4677 37.8615 85.0656 47.3977 85.4789C42.0196 84.5792 36.7713 82.4272 32.1065 78.9458C27.0972 75.2011 23.4416 70.4715 21.0707 65.1258C21.0545 65.0853 20.9573 64.7651 20.941 64.7043C19.7009 61.0325 19.1943 57.0932 19.405 53.2106C19.5226 51.0464 19.9603 48.9227 20.5155 46.8599C21.3747 44.5741 22.4122 42.3694 23.7821 40.347C26.5947 36.1929 30.5219 32.7399 34.8583 30.6082C38.2586 28.9344 42.3195 28.0184 45.5577 27.7793C47.4098 27.6658 48.8081 27.7064 50.4859 27.8968C51.9368 28.0792 53.2945 28.3589 54.7008 28.7358C54.9683 28.8087 55.1953 28.8817 55.4587 28.9627C55.7789 29.06 56.5692 29.3234 56.6259 29.3437C61.9026 31.2161 66.6282 34.6407 70.0609 39.3622C70.0974 39.4149 70.1339 39.4716 70.1703 39.5243C70.1703 39.3865 70.373 39.9174 70.373 39.7796C70.4054 39.8283 70.4378 39.8728 70.4743 39.9215C77.6396 49.709 77.4937 62.5969 70.4581 72.4776C86.6166 67.0063 96.8458 50.2318 93.7617 32.9466L93.7535 32.9547Z" fill="url(#paint0_linear_5_400)"/>
<path d="M70.6042 39.9987C70.5677 39.9501 69.9152 39.0869 69.7815 38.9126C68.9831 39.9339 68.1279 40.9106 67.212 41.8225C63.6577 45.3646 59.2969 48.0314 54.6321 49.2918C41.1039 52.9515 27.1745 46.1022 21.5289 33.7453C18.1854 50.4752 27.4825 67.6347 43.9976 73.6086C52.3909 76.636 61.1126 76.0321 68.8939 73.1871C70.5394 72.5873 70.6528 72.3968 70.6002 72.413C77.6358 62.5323 77.7695 49.7862 70.6042 39.9987Z" fill="url(#paint1_linear_5_400)"/>
</g>
<defs>
<linearGradient id="paint0_linear_5_400" x1="0.198844" y1="58.3414" x2="95.4638" y2="24.7154" gradientUnits="userSpaceOnUse">
<stop stop-color="#50AABE"/>
<stop offset="0.03" stop-color="#459EB8"/>
<stop offset="0.12" stop-color="#2F87AD"/>
<stop offset="0.22" stop-color="#2076A6"/>
<stop offset="0.32" stop-color="#166CA1"/>
<stop offset="0.45" stop-color="#1469A0"/>
<stop offset="0.58" stop-color="#1C71A4"/>
<stop offset="0.79" stop-color="#328AAF"/>
<stop offset="1" stop-color="#50AABE"/>
</linearGradient>
<linearGradient id="paint1_linear_5_400" x1="75.0662" y1="52.5009" x2="18.4776" y2="55.607" gradientUnits="userSpaceOnUse">
<stop stop-color="#1469A0"/>
<stop offset="0.23" stop-color="#1C71A4"/>
<stop offset="0.61" stop-color="#328AAF"/>
<stop offset="1" stop-color="#50AABE"/>
</linearGradient>
<clipPath id="clip0_5_400">
<rect width="230" height="85" fill="white" transform="translate(0 0.5)"/>
</clipPath>
</defs>
</svg>
