<?xml version="1.0" encoding="utf-8"?>
<!-- Generator: Adobe Illustrator 27.0.1, SVG Export Plug-In . SVG Version: 6.00 Build 0)  -->
<svg version="1.1" id="Layer_1" xmlns="http://www.w3.org/2000/svg" xmlns:xlink="http://www.w3.org/1999/xlink" x="0px" y="0px"
	 viewBox="0 0 65 60" style="enable-background:new 0 0 65 60;" xml:space="preserve">
<style type="text/css">
	.st0{fill:#00BAFF;}
</style>
<g>
	<path class="st0" d="M4.6,30c0-4.5,1.2-8.8,3.4-12.7c2.2-3.9,5.5-7.1,9.3-9.3c3.9-2.2,8.3-3.4,12.8-3.4c4.5,0,8.9,1.2,12.8,3.4
		c0.5,0.3,1.2,0.4,1.8,0.2c0.6-0.2,1.1-0.5,1.4-1.1c0.3-0.5,0.4-1.2,0.2-1.7c-0.2-0.6-0.5-1.1-1.1-1.4c-5.8-3.3-12.4-4.6-19-3.8
		C19.7,1.1,13.5,4.1,8.8,8.8c-4.7,4.7-7.7,10.7-8.6,17.3C-0.6,32.6,0.7,39.3,4,45c3.3,5.7,8.4,10.2,14.6,12.7
		c6.1,2.5,12.9,3,19.4,1.3c6.4-1.7,12.1-5.5,16.1-10.7s6.2-11.7,6.2-18.3c0-0.6-0.2-1.2-0.7-1.6c-0.4-0.4-1-0.7-1.6-0.7
		c-0.6,0-1.2,0.2-1.6,0.7c-0.4,0.4-0.7,1-0.7,1.6c0,6.7-2.7,13.2-7.5,17.9c-4.8,4.8-11.3,7.4-18.1,7.4S16.9,52.7,12.1,48
		C7.3,43.2,4.6,36.7,4.6,30z"/>
	<path class="st0" d="M64.3,8.6c0.2-0.2,0.4-0.5,0.5-0.7C64.9,7.5,65,7.2,65,6.9c0-0.3-0.1-0.6-0.2-0.9c-0.1-0.3-0.3-0.5-0.5-0.7
		c-0.2-0.2-0.5-0.4-0.8-0.5S63,4.6,62.7,4.6c-0.3,0-0.6,0.1-0.9,0.2c-0.3,0.1-0.5,0.3-0.8,0.5L30.2,36L17.9,23.8
		c-0.2-0.2-0.5-0.4-0.8-0.5c-0.3-0.1-0.6-0.2-0.9-0.2c-0.3,0-0.6,0.1-0.9,0.2c-0.3,0.1-0.5,0.3-0.8,0.5c-0.2,0.2-0.4,0.5-0.5,0.7
		c-0.1,0.3-0.2,0.6-0.2,0.9c0,0.3,0.1,0.6,0.2,0.9c0.1,0.3,0.3,0.5,0.5,0.7l13.9,13.8c0.2,0.2,0.5,0.4,0.8,0.5
		c0.3,0.1,0.6,0.2,0.9,0.2c0.3,0,0.6-0.1,0.9-0.2c0.3-0.1,0.5-0.3,0.8-0.5L64.3,8.6z"/>
</g>
</svg>
