<svg width="50" height="50" viewBox="0 0 50 50" fill="none" xmlns="http://www.w3.org/2000/svg">
<rect width="50" height="50" rx="25" fill="#1C73A8"/>
<path fill-rule="evenodd" clip-rule="evenodd" d="M19.7658 15.7468C19.7787 14.1007 18.4514 12.881 16.9811 12.893C15.5414 12.868 14.1745 14.0402 14.1749 15.7244C14.1753 17.3957 15.521 18.5543 16.9592 18.559C18.4392 18.5637 19.7531 17.3696 19.7658 15.7468ZM32.5841 36.0641V35.783L32.5842 33.6089C32.5844 31.5813 32.5846 29.5536 32.5832 27.5259C32.5828 26.8887 32.4377 26.2831 32.1654 25.7096C32.0372 25.4396 31.8739 25.1925 31.6679 24.976C31.2941 24.5829 30.8392 24.3578 30.305 24.2864C30.0019 24.246 29.703 24.2552 29.4054 24.3196C28.887 24.4316 28.4637 24.7054 28.1199 25.1098C27.7862 25.5023 27.5671 25.9576 27.4095 26.4464C27.325 26.7089 27.2817 26.9748 27.2822 27.2538C27.2863 29.745 27.2854 32.2364 27.2846 34.7277L27.2843 35.7225C27.2843 35.7424 27.285 35.7624 27.2856 35.7826C27.2882 35.8558 27.2907 35.9307 27.2606 36.0075C27.2515 36.0086 27.2424 36.0099 27.2334 36.0113C27.2279 36.0121 27.2224 36.0129 27.2169 36.0138C27.1857 36.0186 27.1551 36.0233 27.1244 36.0241C26.1348 36.0523 22.7541 36.0363 22.5191 36.0008C22.5184 35.995 22.5176 35.9891 22.5168 35.9831C22.5159 35.977 22.515 35.971 22.5141 35.9648C22.5098 35.9347 22.5053 35.9032 22.5039 35.8715C22.5019 35.8261 22.5023 35.7807 22.5026 35.7352L22.5029 35.6834V21.0042C22.5029 20.9363 22.5039 20.8684 22.5049 20.8033L22.5063 20.7109C22.573 20.6619 22.6374 20.6654 22.6985 20.6687H22.6985C22.7141 20.6695 22.7294 20.6704 22.7446 20.6703C23.2675 20.669 23.7902 20.6691 24.313 20.6692H24.313L24.7407 20.6693H27.229C27.2887 20.7235 27.2867 20.779 27.2847 20.8315C27.2844 20.8411 27.284 20.8506 27.2841 20.8599C27.2852 21.1736 27.2851 21.4871 27.285 21.8008V21.8008L27.2849 22.0833V22.3487C27.3024 22.336 27.3172 22.3264 27.3295 22.3183C27.3505 22.3047 27.3647 22.2955 27.3741 22.2827C28.1119 21.2761 29.1139 20.6772 30.2893 20.3533C31.0796 20.1357 31.8883 20.062 32.7039 20.1163C33.7319 20.1847 34.6474 20.5431 35.4105 21.2618C35.8695 21.694 36.2208 22.2068 36.4986 22.7735C36.835 23.4596 37.0483 24.1862 37.1845 24.9371C37.3123 25.6408 37.3657 26.3513 37.3657 27.0663C37.3657 29.9834 37.3657 32.9003 37.365 35.8174C37.365 35.841 37.3661 35.8647 37.3671 35.8879C37.3696 35.948 37.3721 36.005 37.3564 36.0474C37.3477 36.0575 37.3416 36.0648 37.3372 36.0702C37.3299 36.0791 37.3268 36.0829 37.3229 36.0853C37.3167 36.0893 37.3083 36.0913 37.3009 36.0917L37.2454 36.0943C37.1945 36.0968 37.1436 36.0994 37.0928 36.0994C35.6153 36.0983 34.1377 36.0966 32.6602 36.0942C32.6519 36.0942 32.6435 36.0905 32.6276 36.0833C32.617 36.0785 32.6031 36.0722 32.5837 36.0645L32.5841 36.0641ZM14.5928 35.979L14.5928 35.979C14.5866 35.9626 14.5812 35.9485 14.5812 35.9343C14.5802 30.8773 14.5802 25.8202 14.5808 20.7632C14.5808 20.7474 14.5868 20.7315 14.5914 20.7195C14.5931 20.7149 14.5946 20.7109 14.5956 20.7077C14.6003 20.7027 14.6039 20.6986 14.6069 20.6952C14.6121 20.6893 14.6154 20.6856 14.6194 20.6833C14.6259 20.6797 14.6342 20.6779 14.6418 20.6775L14.6866 20.6749C14.7255 20.6726 14.7645 20.6702 14.8035 20.6702C16.2964 20.6713 17.7892 20.6726 19.282 20.6747C19.291 20.6747 19.2999 20.6785 19.3127 20.6839C19.3201 20.687 19.3287 20.6906 19.3394 20.6944C19.341 20.7053 19.343 20.7168 19.3451 20.7288L19.3451 20.7288C19.3501 20.7574 19.3555 20.7885 19.3571 20.8199C19.3595 20.8644 19.359 20.909 19.3586 20.9536C19.3584 20.9717 19.3582 20.9899 19.3582 21.008V35.6852V35.9997C19.3393 36.003 19.322 36.0065 19.3057 36.0097L19.3056 36.0098C19.2727 36.0163 19.2438 36.0221 19.2148 36.0243C19.1765 36.0272 19.1379 36.0266 19.0994 36.026L19.099 36.026C19.0834 36.0258 19.0679 36.0255 19.0524 36.0255L18.2214 36.0256H18.2214C17.106 36.0256 15.9907 36.0256 14.8752 36.0251C14.8553 36.0251 14.8352 36.0257 14.8151 36.0263L14.815 36.0263C14.7437 36.0283 14.6719 36.0304 14.6023 36.0067H14.6025C14.5995 35.9967 14.596 35.9876 14.5928 35.979Z" fill="white"/>
</svg>
